<svg id="Capa_1" enable-background="new 0 0 512 512" height="512" viewBox="0 0 512 512" width="512" xmlns="http://www.w3.org/2000/svg"><g><g><path d="m418.02 504.5h-324.04c-8.837 0-16-7.163-16-16v-421.722c0-8.837 7.163-16 16-16h324.04c8.837 0 16 7.163 16 16v421.722c0 8.837-7.164 16-16 16z" fill="#ac5e2e"/><path d="m118.619 460.976v-351.6c0-4.971 4.029-9 9-9h256.763c4.971 0 9 4.029 9 9v351.6c0 4.971-4.029 9-9 9h-256.763c-4.971 0-9-4.029-9-9z" fill="#d3e1f5"/><path d="m296.651 74.421v-26.274c0-22.449-18.198-40.647-40.647-40.647h-.008c-22.449 0-40.647 18.198-40.647 40.647v26.274c0 1.958-1.587 3.545-3.545 3.545h-36.46c-3.916 0-7.091 3.175-7.091 7.091v36.34c0 3.916 3.175 7.091 7.091 7.091h158.653c3.916 0 7.091-3.175 7.091-7.091v-36.34c0-3.916-3.175-7.091-7.091-7.091h-33.801c-1.957.001-3.545-1.587-3.545-3.545z" fill="#9c9c9c"/><path d="m418.02 50.778h-40.638c8.837 0 16 7.163 16 16v421.722c0 8.836-7.163 16-16 16h40.638c8.837 0 16-7.164 16-16v-421.722c0-8.837-7.164-16-16-16z" fill="#9e5528"/><path d="m384.381 100.376h-40.638c4.971 0 9 4.029 9 9v351.6c0 4.971-4.029 9-9 9h40.638c4.97 0 9-4.029 9-9v-351.6c0-4.97-4.029-9-9-9z" fill="#c0d6f2"/><g fill="#838383"><path d="m268.305 48.147v26.274c0 1.958 1.587 3.545 3.545 3.545h28.346c-1.958 0-3.545-1.587-3.545-3.545v-26.274c0-22.449-18.198-40.647-40.647-40.647h-.008c-4.984 0-9.757.901-14.169 2.542 15.461 5.752 26.478 20.641 26.478 38.105z"/><path d="m333.997 77.967h-28.346c3.916 0 7.091 3.175 7.091 7.091v36.339c0 3.916-3.175 7.091-7.091 7.091h28.346c3.916 0 7.091-3.175 7.091-7.091v-36.339c0-3.916-3.175-7.091-7.091-7.091z"/></g><circle cx="256" cy="47.608" fill="#5a5a5a" r="15.954"/></g><g><path d="m256 24.154c-12.933 0-23.454 10.521-23.454 23.454s10.521 23.455 23.454 23.455 23.454-10.521 23.454-23.454-10.521-23.455-23.454-23.455zm0 31.909c-4.662 0-8.454-3.793-8.454-8.454s3.792-8.454 8.454-8.454c4.661 0 8.454 3.793 8.454 8.454s-3.793 8.454-8.454 8.454z"/><path d="m164.67 190.629h180c4.143 0 7.5-3.357 7.5-7.5s-3.357-7.5-7.5-7.5h-180c-4.142 0-7.5 3.357-7.5 7.5s3.358 7.5 7.5 7.5z"/><path d="m164.67 247.322h180c4.143 0 7.5-3.357 7.5-7.5s-3.357-7.5-7.5-7.5h-180c-4.142 0-7.5 3.357-7.5 7.5s3.358 7.5 7.5 7.5z"/><path d="m164.67 304.015h180c4.143 0 7.5-3.357 7.5-7.5s-3.357-7.5-7.5-7.5h-180c-4.142 0-7.5 3.357-7.5 7.5s3.358 7.5 7.5 7.5z"/><path d="m164.67 360.708h180c4.143 0 7.5-3.357 7.5-7.5s-3.357-7.5-7.5-7.5h-180c-4.142 0-7.5 3.357-7.5 7.5s3.358 7.5 7.5 7.5z"/><path d="m164.67 417.4h180c4.143 0 7.5-3.357 7.5-7.5s-3.357-7.5-7.5-7.5h-180c-4.142 0-7.5 3.357-7.5 7.5s3.358 7.5 7.5 7.5z"/><path d="m428.483 45.732c-.009-.004-.018-.009-.027-.013-3.262-1.619-6.771-2.44-10.437-2.441h-114.113c-2.449-24.27-22.997-43.278-47.91-43.278-24.905 0-45.453 19.008-47.901 43.278h-114.115c-12.958 0-23.5 10.542-23.5 23.5v421.722c0 12.958 10.542 23.5 23.5 23.5h243.665c4.143 0 7.5-3.357 7.5-7.5s-3.357-7.5-7.5-7.5h-243.665c-4.687 0-8.5-3.813-8.5-8.5v-421.722c0-4.687 3.813-8.5 8.5-8.5h113.868v12.188h-32.505c-8.045 0-14.59 6.546-14.59 14.591v7.819h-33.135c-9.098 0-16.5 7.402-16.5 16.5v71.951c0 4.143 3.358 7.5 7.5 7.5s7.5-3.357 7.5-7.5v-71.951c0-.827.673-1.5 1.5-1.5h33.135v13.52.001c0 8.068 6.597 14.591 14.59 14.591h158.653c8.045 0 14.591-6.545 14.591-14.591v-.001-13.52h35.793c.827 0 1.5.673 1.5 1.5v351.6c0 .827-.673 1.5-1.5 1.5h-256.761c-.827 0-1.5-.673-1.5-1.5v-244.648c0-4.143-3.358-7.5-7.5-7.5s-7.5 3.357-7.5 7.5v244.648c0 9.098 7.402 16.5 16.5 16.5h256.762c9.098 0 16.5-7.402 16.5-16.5v-351.6c0-9.098-7.402-16.5-16.5-16.5h-35.793v-7.819c0-8.045-6.545-14.591-14.591-14.591h-29.846v-12.188h113.865c1.334.001 2.606.298 3.783.883.005.003.01.005.014.008 2.903 1.451 4.706 4.365 4.706 7.609v421.722c0 4.687-3.813 8.5-8.5 8.5h-45.374c-4.143 0-7.5 3.357-7.5 7.5s3.357 7.5 7.5 7.5h45.374c12.958 0 23.5-10.542 23.5-23.5v-421.722c.001-8.979-4.995-17.044-13.036-21.046zm-94.895 39.735v35.521h-157.835c0-8.601 0-16.837 0-35.521h36.05c6.09 0 11.045-4.955 11.045-11.045 0-9.697 0-16.716 0-26.274 0-18.277 14.87-33.147 33.156-33.147 18.277 0 33.147 14.87 33.147 33.147v26.274c0 6.09 4.955 11.045 11.045 11.045z"/></g></g></svg>